<?xml version="1.0" encoding="UTF-8"?>
<svg id="Layer_1" data-name="Layer 1" xmlns="http://www.w3.org/2000/svg" viewBox="0 0 2102.07 678.94">
  <defs>
    <style>
      .cls-1 {
        fill: #ebfc72;
      }
    </style>
  </defs>
  <path class="cls-1" d="M418.86,253.26h-50.75c-5.6,0-10.92,2.49-14.5,6.8l-92.74,111.4c-5.22,6.27-15.39,3.38-16.54-4.69l-38.66-271.22c-1.49-10.48-11.32-17.68-21.76-15.96l-45.4,7.5c-10.1,1.67-17.03,11.09-15.61,21.23l60.56,433.4c2.32,16.62,23.57,22.17,33.72,8.8l43.8-57.66,28.64-34.67,39.36,43.4c3.09,3.74,7.68,5.91,12.53,5.91h73.57c13.65,0,21.22-15.82,12.65-26.45l-79.92-93.29,85.61-103.62c10.17-12.31,1.41-30.89-14.55-30.89Z"/>
  <path class="cls-1" d="M632.07,505.47c-.58-7.07-4.79-13.59-11.36-16.25-16.82-6.8-31.41-21.97-34.45-45.82l-23.75-166.7c-1.3-9.1-9.09-15.87-18.29-15.87l-33.15-.2c-11.24,0-19.87,9.95-18.29,21.07l23.53,165.66c8.12,59.83,63.14,95.31,89.94,99.92,11.73,2.02,28.6-7.74,27.63-19.61l-1.82-22.22Z"/>
  <path class="cls-1" d="M772.37,469.86l-27.69-194.77c-1.13-7.92-7.91-13.81-15.91-13.81l-35.84-.64c-9.77,0-17.28,8.64-15.91,18.31l32.79,232.91c2.7,12.45,8.88,22.51,14.59,29.76,4.48,5.68,15.99,8.24,22.65,5.43l27.7-11.72c8.18-3.46,11.82-12.79,8.53-21.04-4.73-11.87-8.42-27.06-10.91-44.43Z"/>
  <path class="cls-1" d="M1979.21,581.43l-27.47-198.75c-13.45-94.77-57.63-137.03-136.39-137.03-36.11,0-64.04,14.94-82.87,31.91-9.74,8.78-25.3,3.25-27.48-9.68h0c-1.35-8.03-8.31-13.91-16.45-13.91h-46.09c-10.14,0-17.94,8.98-16.52,19.02l24.73,174.74c1.16,8.23,8.21,14.34,16.52,14.34h45.45c10.23,0,18.05-9.13,16.48-19.24l-8.98-57.93c-.55-3.53-.01-7.2,1.68-10.35,16.84-31.29,43.51-52.72,79.44-52.72s66.59,26.89,72.35,65.96l27.46,198.2c1.14,8.25,8.2,14.39,16.52,14.39h45.09c10.12,0,17.91-8.94,16.52-18.97Z"/>
  <path class="cls-1" d="M1642.39,517.79c-4.46-7.15-12.4-11.06-20.83-11.02-.05,0-.1,0-.15,0-16.39,0-24.31-15.83-28.27-41.26,0,0-3.34-15.79-15-70.84-22.56-106.5-98.62-149.03-170.37-149.03-87.61,0-146.39,69.52-133.39,162.21,10.43,75.45,68.37,138.25,139.75,153.96,15.28,3.36,34.9-18.46,33.67-34.06l3.16-4.59c-.75-9.44-7.79-28.59-16.85-31.32-42.06-12.64-78.36-39.68-85.46-88.91-8.48-59.35,17.82-86.8,68.67-88.15,35-.93,57.01,19.67,76.46,65.27,19.45,45.6,34.88,121.58,37.38,141.01.28,2.14.77,4.28,1.62,6.27,12.31,28.69,44.12,38.19,63.78,38.19s33.04-4.73,43.05-11.74c10-7,12.16-21,5.7-31.36l-2.9-4.66Z"/>
  <path class="cls-1" d="M1229.28,253.26h-50.75c-5.6,0-10.92,2.49-14.5,6.8l-92.74,111.4c-5.22,6.27-15.39,3.38-16.54-4.69l-38.66-271.22c-1.49-10.48-11.32-17.68-21.76-15.96l-45.4,7.5c-10.1,1.67-17.03,11.09-15.61,21.23l60.57,433.4c2.32,16.62,23.57,22.17,33.72,8.8l43.8-57.66,28.64-34.67,39.36,43.4c3.09,3.74,7.68,5.91,12.53,5.91h73.57c13.65,0,21.22-15.82,12.65-26.45l-79.92-93.29,85.61-103.62c10.17-12.31,1.41-30.89-14.55-30.89Z"/>
  <path class="cls-1" d="M880.02,95.56c-1.42-10.18-10.41-17.56-20.67-16.98l-43.67,9.24c-11.52.66-20.03,11.01-18.43,22.44l60.99,436.42c1.36,9.75,9.7,17.01,19.55,17.01h44.24c11.99,0,21.21-10.6,19.55-22.47l-61.56-445.66Z"/>
</svg>